<svg width="22.390625" height="25.000000" viewBox="0 0 22.3906 25" fill="none" xmlns="http://www.w3.org/2000/svg" xmlns:xlink="http://www.w3.org/1999/xlink">
	<desc>
			Created with Pixso.
	</desc>
	<defs/>
	<path id="Личный профиль" d="M11.1953 0C6.96875 0 3.54297 3.42639 3.54297 7.65308C3.54297 10.5592 5.16211 13.0872 7.54883 14.3829C5.91699 14.9435 4.45508 15.8705 3.25977 17.0652C1.28125 19.0403 0.196289 21.5746 0.00195312 24.1633C-0.0322266 24.6244 0.345703 25 0.807617 25C1.26953 25 1.64062 24.6248 1.68066 24.1644C1.88086 21.8624 2.89941 19.7928 4.44336 18.2487C6.30469 16.3838 8.75 15.4521 11.1953 15.4521C13.8301 15.4496 16.2178 16.5198 17.9463 18.2487C19.5986 19.8977 20.5186 22.005 20.708 24.1644C20.749 24.6249 21.1201 25 21.582 25C22.0449 25 22.4229 24.6245 22.3887 24.1632C22.1846 21.3995 20.9766 18.9125 19.1299 17.0652C17.8809 15.8142 16.4092 14.9205 14.8408 14.3838C17.2285 13.0883 18.8486 10.5599 18.8486 7.65308C18.8486 3.42639 15.4229 0 11.1953 0ZM11.1953 1.53064C7.81445 1.53064 5.07324 4.27173 5.07324 7.65308C5.07324 11.0344 7.81445 13.7755 11.1953 13.7755C14.5771 13.7755 17.3184 11.0344 17.3184 7.65308C17.3184 4.27173 14.5771 1.53064 11.1953 1.53064Z" clip-rule="evenodd" fill="#F5F5F5" fill-opacity="1.000000" fill-rule="evenodd"/>
</svg>
