<svg width="92" height="27" viewBox="0 0 92 27" fill="none" xmlns="http://www.w3.org/2000/svg">
<path d="M4.92472 22.162C3.89272 22.162 3.08872 21.946 2.51272 21.514C1.94872 21.082 1.55272 20.5 1.32472 19.768C1.10872 19.036 1.00072 18.22 1.00072 17.32V12.172C1.00072 11.188 1.10872 10.33 1.32472 9.598C1.55272 8.866 1.94872 8.302 2.51272 7.906C3.08872 7.498 3.89272 7.294 4.92472 7.294C5.83672 7.294 6.55672 7.462 7.08472 7.798C7.62472 8.134 8.00872 8.614 8.23672 9.238C8.47672 9.862 8.59672 10.612 8.59672 11.488V12.64H6.67072V11.614C6.67072 11.074 6.64072 10.6 6.58072 10.192C6.53272 9.772 6.38872 9.448 6.14872 9.22C5.90872 8.992 5.50672 8.878 4.94272 8.878C4.36672 8.878 3.94672 9.004 3.68272 9.256C3.41872 9.496 3.24472 9.844 3.16072 10.3C3.08872 10.744 3.05272 11.266 3.05272 11.866V17.644C3.05272 18.376 3.11272 18.958 3.23272 19.39C3.35272 19.81 3.55072 20.11 3.82672 20.29C4.10272 20.47 4.47472 20.56 4.94272 20.56C5.49472 20.56 5.89072 20.44 6.13072 20.2C6.37072 19.948 6.52072 19.606 6.58072 19.174C6.64072 18.742 6.67072 18.238 6.67072 17.662V16.582H8.59672V17.662C8.59672 18.55 8.48872 19.336 8.27272 20.02C8.05672 20.692 7.68472 21.22 7.15672 21.604C6.62872 21.976 5.88472 22.162 4.92472 22.162ZM13.2344 22.144C12.4664 22.144 11.8604 21.988 11.4164 21.676C10.9724 21.364 10.6544 20.92 10.4624 20.344C10.2824 19.768 10.1924 19.09 10.1924 18.31V15.286C10.1924 14.506 10.2824 13.828 10.4624 13.252C10.6544 12.676 10.9724 12.232 11.4164 11.92C11.8604 11.608 12.4664 11.452 13.2344 11.452C14.0024 11.452 14.6024 11.608 15.0344 11.92C15.4784 12.232 15.7904 12.676 15.9704 13.252C16.1624 13.828 16.2584 14.506 16.2584 15.286V18.31C16.2584 19.09 16.1624 19.768 15.9704 20.344C15.7904 20.92 15.4784 21.364 15.0344 21.676C14.6024 21.988 14.0024 22.144 13.2344 22.144ZM13.2344 20.722C13.6064 20.722 13.8644 20.614 14.0084 20.398C14.1644 20.182 14.2544 19.9 14.2784 19.552C14.3144 19.192 14.3324 18.82 14.3324 18.436V15.178C14.3324 14.782 14.3144 14.41 14.2784 14.062C14.2544 13.714 14.1644 13.432 14.0084 13.216C13.8644 12.988 13.6064 12.874 13.2344 12.874C12.8624 12.874 12.5984 12.988 12.4424 13.216C12.2864 13.432 12.1904 13.714 12.1544 14.062C12.1304 14.41 12.1184 14.782 12.1184 15.178V18.436C12.1184 18.82 12.1304 19.192 12.1544 19.552C12.1904 19.9 12.2864 20.182 12.4424 20.398C12.5984 20.614 12.8624 20.722 13.2344 20.722ZM20.8809 22.144C20.1129 22.144 19.5069 21.988 19.0629 21.676C18.6189 21.364 18.3009 20.92 18.1089 20.344C17.9289 19.768 17.8389 19.09 17.8389 18.31V15.286C17.8389 14.506 17.9289 13.828 18.1089 13.252C18.3009 12.676 18.6189 12.232 19.0629 11.92C19.5069 11.608 20.1129 11.452 20.8809 11.452C21.6489 11.452 22.2489 11.608 22.6809 11.92C23.1249 12.232 23.4369 12.676 23.6169 13.252C23.8089 13.828 23.9049 14.506 23.9049 15.286V18.31C23.9049 19.09 23.8089 19.768 23.6169 20.344C23.4369 20.92 23.1249 21.364 22.6809 21.676C22.2489 21.988 21.6489 22.144 20.8809 22.144ZM20.8809 20.722C21.2529 20.722 21.5109 20.614 21.6549 20.398C21.8109 20.182 21.9009 19.9 21.9249 19.552C21.9609 19.192 21.9789 18.82 21.9789 18.436V15.178C21.9789 14.782 21.9609 14.41 21.9249 14.062C21.9009 13.714 21.8109 13.432 21.6549 13.216C21.5109 12.988 21.2529 12.874 20.8809 12.874C20.5089 12.874 20.2449 12.988 20.0889 13.216C19.9329 13.432 19.8369 13.714 19.8009 14.062C19.7769 14.41 19.7649 14.782 19.7649 15.178V18.436C19.7649 18.82 19.7769 19.192 19.8009 19.552C19.8369 19.9 19.9329 20.182 20.0889 20.398C20.2449 20.614 20.5089 20.722 20.8809 20.722ZM25.8454 22V7.42H27.7714V22H25.8454ZM29.9046 22L30.1746 7.42H32.1726L34.7466 19.246L37.3386 7.42H39.3186L39.5886 22H37.9506L37.7886 11.416L35.3226 22H34.1706L31.7226 11.416L31.5606 22H29.9046ZM43.1555 22.144C42.7475 22.144 42.4295 22.036 42.2015 21.82C41.9735 21.604 41.8115 21.334 41.7155 21.01C41.6315 20.686 41.5895 20.356 41.5895 20.02V11.596H43.5155V19.444C43.5155 19.816 43.5695 20.11 43.6775 20.326C43.7855 20.53 44.0075 20.632 44.3435 20.632C44.5595 20.632 44.7815 20.572 45.0095 20.452C45.2495 20.32 45.4775 20.164 45.6935 19.984V11.596H47.6195V22H45.6935V20.974C45.3575 21.298 44.9735 21.574 44.5415 21.802C44.1215 22.03 43.6595 22.144 43.1555 22.144ZM52.0012 22.144C51.1492 22.144 50.4652 21.88 49.9492 21.352C49.4332 20.812 49.1392 20.104 49.0672 19.228L50.6692 18.742C50.7652 19.402 50.9272 19.9 51.1552 20.236C51.3832 20.56 51.7192 20.722 52.1632 20.722C52.5112 20.722 52.7752 20.626 52.9552 20.434C53.1352 20.23 53.2252 19.96 53.2252 19.624C53.2252 19.324 53.1592 19.054 53.0272 18.814C52.8952 18.574 52.6792 18.328 52.3792 18.076L50.5972 16.546C50.2372 16.234 49.9312 15.886 49.6792 15.502C49.4392 15.118 49.3192 14.62 49.3192 14.008C49.3192 13.456 49.4272 12.994 49.6432 12.622C49.8712 12.238 50.1832 11.95 50.5792 11.758C50.9872 11.554 51.4612 11.452 52.0012 11.452C52.8292 11.452 53.4592 11.722 53.8912 12.262C54.3352 12.79 54.5872 13.432 54.6472 14.188L53.3512 14.674C53.3032 14.314 53.2312 14.002 53.1352 13.738C53.0392 13.462 52.9072 13.252 52.7392 13.108C52.5712 12.952 52.3492 12.874 52.0732 12.874C51.7612 12.874 51.5092 12.982 51.3172 13.198C51.1372 13.402 51.0472 13.648 51.0472 13.936C51.0472 14.116 51.0832 14.296 51.1552 14.476C51.2392 14.644 51.3772 14.812 51.5692 14.98L53.4052 16.672C53.6572 16.9 53.8912 17.146 54.1072 17.41C54.3352 17.674 54.5212 17.974 54.6652 18.31C54.8092 18.646 54.8812 19.036 54.8812 19.48C54.8812 20.068 54.7612 20.56 54.5212 20.956C54.2812 21.352 53.9452 21.652 53.5132 21.856C53.0812 22.048 52.5772 22.144 52.0012 22.144ZM56.4476 22V11.596H58.3736V22H56.4476ZM56.4476 10.048V8.032H58.3736V10.048H56.4476ZM63.2789 22.144C62.4269 22.144 61.7789 21.976 61.3349 21.64C60.9029 21.292 60.6089 20.806 60.4529 20.182C60.3089 19.558 60.2369 18.832 60.2369 18.004V15.61C60.2369 14.734 60.3149 13.99 60.4709 13.378C60.6269 12.754 60.9209 12.28 61.3529 11.956C61.7969 11.62 62.4389 11.452 63.2789 11.452C64.0349 11.452 64.6169 11.578 65.0249 11.83C65.4449 12.07 65.7329 12.436 65.8889 12.928C66.0449 13.408 66.1229 14.008 66.1229 14.728V15.34H64.3769V14.71C64.3769 14.254 64.3469 13.894 64.2869 13.63C64.2269 13.366 64.1189 13.174 63.9629 13.054C63.8069 12.934 63.5849 12.874 63.2969 12.874C62.9849 12.874 62.7449 12.946 62.5769 13.09C62.4089 13.234 62.2949 13.48 62.2349 13.828C62.1869 14.164 62.1629 14.626 62.1629 15.214V18.49C62.1629 19.378 62.2469 19.972 62.4149 20.272C62.5829 20.572 62.8829 20.722 63.3149 20.722C63.6389 20.722 63.8729 20.65 64.0169 20.506C64.1729 20.35 64.2689 20.134 64.3049 19.858C64.3529 19.582 64.3769 19.27 64.3769 18.922V18.076H66.1229V18.796C66.1229 19.492 66.0389 20.092 65.8709 20.596C65.7149 21.1 65.4269 21.484 65.0069 21.748C64.5989 22.012 64.0229 22.144 63.2789 22.144Z" fill="#F5F5F5"/>
<circle cx="83" cy="14" r="9" fill="#3F1792"/>
<path d="M79 12.6364L82.7895 17L88 11" stroke="white" stroke-width="1.5" stroke-linecap="round"/>
</svg>
