<svg width="222.256348" height="36.401001" viewBox="0 0 222.256 36.401" fill="none" xmlns="http://www.w3.org/2000/svg" xmlns:xlink="http://www.w3.org/1999/xlink">
	<desc>
			Created with Pixso.
	</desc>
	<defs/>
	<path id="Лого" d="M113.917 9C113.917 6.51477 111.902 4.5 109.417 4.5C111.902 4.5 113.917 2.48523 113.917 0C113.917 2.48523 115.932 4.5 118.417 4.5C115.932 4.5 113.917 6.51477 113.917 9ZM65.4873 36.401Q62.6172 36.401 60.6904 35.171C59.4331 34.351 58.4761 33.2167 57.8203 31.7679Q56.8364 29.595 56.6724 26.725L60.7725 25.618C60.8545 26.7933 61.0317 27.9276 61.3052 29.021Q61.7563 30.661 62.7402 31.7271C63.3965 32.4103 64.312 32.752 65.4873 32.752C66.6899 32.752 67.5918 32.424 68.1934 31.7679C68.8218 31.0847 69.1362 30.1144 69.1362 28.8571Q69.1362 26.6021 68.1113 25.249C67.4277 24.3197 66.5669 23.3904 65.5283 22.4609L59.9521 17.541C58.8589 16.5844 58.0527 15.5457 57.5332 14.425Q56.7544 12.703 56.7544 10.202Q56.7544 7.10974 58.2559 5.19531Q58.5264 4.85059 58.8452 4.54395Q59.1304 4.27014 59.4438 4.03357Q61.4282 2.53503 64.5444 2.53503C65.8564 2.53503 67.0044 2.71265 67.9883 3.06799C68.9995 3.396 69.833 3.91528 70.4893 4.62598C71.1724 5.33667 71.7056 6.23865 72.0884 7.33203C72.498 8.39795 72.7715 9.65527 72.9082 11.104L68.9722 12.17C68.8901 11.0767 68.7261 10.079 68.4805 9.177C68.2344 8.24768 67.7969 7.50964 67.1685 6.96301C66.5669 6.38904 65.6924 6.10205 64.5444 6.10205Q63.0181 6.10205 62.0718 6.84277Q61.9502 6.93774 61.8384 7.04504C61.2095 7.64636 60.895 8.54834 60.895 9.75098C60.895 10.7623 61.0591 11.5959 61.3872 12.252C61.7427 12.908 62.3027 13.5776 63.0684 14.261L68.6851 19.181C69.9424 20.2743 71.0498 21.5863 72.0063 23.1169Q72.0664 23.2118 72.1245 23.308Q73.4414 25.5029 73.4414 28.488C73.4414 30.1281 73.0996 31.5493 72.416 32.752C71.7329 33.9274 70.79 34.8293 69.5874 35.458C68.4121 36.0867 67.0454 36.401 65.4873 36.401ZM127.868 36.401C125.955 36.401 124.356 35.991 123.071 35.171C121.814 34.351 120.857 33.2167 120.201 31.7679Q119.217 29.595 119.053 26.725L123.153 25.618C123.235 26.7933 123.413 27.9276 123.686 29.021Q124.137 30.661 125.121 31.7271C125.777 32.4103 126.693 32.752 127.868 32.752C129.071 32.752 129.973 32.424 130.574 31.7679C131.203 31.0847 131.517 30.1144 131.517 28.8571C131.517 27.3536 131.175 26.151 130.492 25.249C129.809 24.3197 128.948 23.3904 127.909 22.4609L122.333 17.541C121.24 16.5844 120.434 15.5457 119.914 14.425Q119.135 12.703 119.135 10.202C119.135 7.76929 119.832 5.8833 121.226 4.54395C122.62 3.20471 124.52 2.53503 126.925 2.53503C128.237 2.53503 129.385 2.71265 130.369 3.06799Q131.67 3.48987 132.579 4.33386Q132.73 4.47412 132.87 4.62598C133.553 5.33667 134.086 6.23865 134.469 7.33203C134.879 8.39795 135.152 9.65527 135.289 11.104L131.353 12.17C131.271 11.0767 131.107 10.079 130.861 9.177Q130.532 7.93237 129.745 7.14526Q129.65 7.0509 129.549 6.96301C128.948 6.38904 128.073 6.10205 126.925 6.10205C125.777 6.10205 124.875 6.41638 124.219 7.04504C123.59 7.64636 123.276 8.54834 123.276 9.75098C123.276 10.7623 123.44 11.5959 123.768 12.252C124.124 12.908 124.684 13.5776 125.449 14.261L131.066 19.181C132.323 20.2743 133.431 21.5863 134.387 23.1169Q134.442 23.204 134.496 23.2922L134.505 23.308Q135.822 25.5029 135.822 28.488C135.822 30.1281 135.48 31.5493 134.797 32.752C134.114 33.9274 133.171 34.8293 131.968 35.458C130.793 36.0867 129.426 36.401 127.868 36.401ZM156.616 36.401Q153.746 36.401 151.819 35.171C150.562 34.351 149.605 33.2167 148.949 31.7679C148.293 30.3193 147.911 28.6383 147.801 26.725L151.901 25.618C151.983 26.7933 152.161 27.9276 152.434 29.021C152.735 30.1144 153.213 31.0164 153.869 31.7271Q154.038 31.9027 154.229 32.0482Q155.155 32.752 156.616 32.752C157.819 32.752 158.721 32.424 159.322 31.7679C159.951 31.0847 160.265 30.1144 160.265 28.8571C160.265 27.3536 159.923 26.151 159.24 25.249C158.557 24.3197 157.696 23.3904 156.657 22.4609L151.081 17.541C149.988 16.5844 149.182 15.5457 148.662 14.425C148.143 13.277 147.883 11.8694 147.883 10.202C147.883 7.76929 148.58 5.8833 149.974 4.54395C151.368 3.20471 153.268 2.53503 155.673 2.53503C156.985 2.53503 158.133 2.71265 159.117 3.06799Q160.418 3.48987 161.327 4.33386Q161.478 4.47412 161.618 4.62598C162.301 5.33667 162.834 6.23865 163.217 7.33203C163.627 8.39795 163.9 9.65527 164.037 11.104L160.101 12.17C160.019 11.0767 159.855 10.079 159.609 9.177Q159.28 7.93237 158.493 7.14526Q158.398 7.0509 158.297 6.96301L158.295 6.96094Q157.393 6.10205 155.673 6.10205C154.525 6.10205 153.623 6.41638 152.967 7.04504Q152.925 7.08508 152.885 7.12695Q152.024 8.0271 152.024 9.75098C152.024 10.7623 152.188 11.5959 152.516 12.252C152.872 12.908 153.432 13.5776 154.197 14.261L159.814 19.181C161.071 20.2743 162.179 21.5863 163.135 23.1169Q163.19 23.204 163.244 23.2922L163.253 23.308Q164.57 25.5029 164.57 28.488C164.57 30.1281 164.229 31.5493 163.545 32.752C162.862 33.9274 161.919 34.8293 160.716 35.458C159.541 36.0867 158.174 36.401 156.616 36.401ZM0 36.032L0 2.82202L8.24121 2.82202C10.2363 2.82202 11.8218 3.19104 12.9971 3.92896C14.1997 4.63965 15.0742 5.67834 15.6211 7.04504Q16.4409 9.09497 16.4409 12.006Q16.4409 14.63 15.498 16.557C14.8965 17.8417 13.9946 18.8394 12.792 19.55C11.5894 20.2333 10.0859 20.575 8.28223 20.575L4.63281 20.575L4.63281 36.032L0 36.032ZM19.6992 36.032L19.6992 2.82202L26.3823 2.82202Q29.7031 2.82202 31.876 3.724C33.3247 4.29797 34.3911 5.24097 35.0742 6.55298C35.7847 7.83765 36.1401 9.53235 36.1401 11.637C36.1401 12.9216 36.0034 14.097 35.73 15.163Q35.3203 16.7209 34.4185 17.828C33.8169 18.5387 33.0244 19.058 32.04 19.386L36.7554 36.032L32.2861 36.032L27.9404 20.452L24.332 20.452L24.332 36.032L19.6992 36.032ZM40.96 36.032L40.96 2.82202L53.834 2.82202L53.834 6.26599L45.5928 6.26599L45.5928 17.254L52.2759 17.254L52.2759 20.5341L45.5928 20.5341L45.5928 32.7111L53.916 32.7111L53.916 36.032L40.96 36.032ZM77.0352 36.032L77.0352 2.82202L89.9092 2.82202L89.9092 6.26599L81.668 6.26599L81.668 17.254L88.3511 17.254L88.3511 20.5341L81.668 20.5341L81.668 32.7111L89.9912 32.7111L89.9912 36.032L77.0352 36.032ZM97.3804 36.032L97.3804 6.26599L91.7637 6.26599L91.7637 2.82202L107.466 2.82202L107.466 6.26599L102.014 6.26599L102.014 36.032L97.3804 36.032ZM171.813 36.032L171.813 6.26599L166.196 6.26599L166.196 2.82202L181.899 2.82202L181.899 6.26599L176.446 6.26599L176.446 36.032L171.813 36.032ZM183.216 36.032L190.269 2.82202L194.737 2.82202L201.831 36.032L197.443 36.032L195.927 27.668L189.162 27.668L187.562 36.032L183.216 36.032ZM205.2 36.032L205.2 2.82202L211.883 2.82202C214.097 2.82202 215.929 3.12268 217.377 3.724C218.826 4.29797 219.892 5.24097 220.575 6.55298Q221.641 8.47998 221.641 11.637C221.641 12.9216 221.504 14.097 221.231 15.163Q220.821 16.7209 219.919 17.828C219.318 18.5387 218.525 19.058 217.541 19.386L222.256 36.032L217.787 36.032L213.441 20.452L209.833 20.452L209.833 36.032L205.2 36.032ZM4.63281 17.254L6.76514 17.254Q8.77393 17.254 9.92188 16.803C10.6875 16.5023 11.2339 15.983 11.562 15.245Q12.0542 14.097 12.0542 12.047Q12.0542 9.66895 11.6851 8.39795C11.4663 7.55066 10.9878 6.96301 10.25 6.63501Q9.14307 6.14294 6.80615 6.14294L4.63281 6.14294L4.63281 17.254ZM24.332 17.131L26.0952 17.131Q28.063 17.131 29.2935 16.639Q29.916 16.3899 30.3706 15.9619Q30.814 15.5449 31.0972 14.958C31.48 14.1653 31.6714 13.0583 31.6714 11.637C31.6714 9.69629 31.3159 8.30237 30.605 7.45496Q29.5391 6.14294 26.3823 6.14294L24.332 6.14294L24.332 17.131ZM209.833 17.131L211.596 17.131C212.908 17.131 213.974 16.967 214.794 16.639C215.614 16.311 216.215 15.7506 216.598 14.958Q217.172 13.769 217.172 11.637Q217.172 8.72595 216.106 7.45496C215.396 6.58032 213.988 6.14294 211.883 6.14294L209.833 6.14294L209.833 17.131ZM189.776 24.347L195.312 24.347L192.523 9.38196L189.776 24.347Z" clip-rule="evenodd" fill="#F5F5F5" fill-opacity="1.000000" fill-rule="evenodd"/>
</svg>
