<svg width="117" height="20" viewBox="0 0 117 20" fill="none" xmlns="http://www.w3.org/2000/svg">
<path fill-rule="evenodd" clip-rule="evenodd" d="M9.8221 0.369102C10.034 -0.123034 10.7318 -0.123034 10.9438 0.369102L13.3865 6.04135C13.4762 6.24968 13.674 6.39112 13.9002 6.40863L20.2015 6.89653C20.7489 6.93891 20.9666 7.62585 20.5436 7.97581L15.7744 11.9215C15.5937 12.071 15.5146 12.3107 15.5708 12.5384L17.0333 18.4599C17.1631 18.9851 16.5962 19.4071 16.1303 19.1323L10.6932 15.9248C10.5018 15.8119 10.2641 15.8119 10.0727 15.9248L4.63557 19.1323C4.16962 19.4071 3.6028 18.9851 3.73251 18.4599L5.19502 12.5384C5.25125 12.3107 5.17213 12.071 4.99145 11.9215L0.222247 7.97581C-0.20076 7.62585 0.0169778 6.93891 0.564346 6.89653L6.86568 6.40863C7.09184 6.39112 7.28965 6.24968 7.37937 6.04135L9.8221 0.369102ZM33.8221 0.369102C34.034 -0.123034 34.7318 -0.123034 34.9438 0.369102L37.3865 6.04135C37.4762 6.24968 37.674 6.39112 37.9002 6.40863L44.2015 6.89653C44.7489 6.93891 44.9666 7.62585 44.5436 7.97581L39.7744 11.9215C39.5937 12.071 39.5146 12.3107 39.5708 12.5384L41.0333 18.4599C41.1631 18.9851 40.5962 19.4071 40.1303 19.1323L34.6932 15.9248C34.5018 15.8119 34.2641 15.8119 34.0727 15.9248L28.6356 19.1323C28.1696 19.4071 27.6028 18.9851 27.7325 18.4599L29.195 12.5384C29.2512 12.3107 29.1721 12.071 28.9915 11.9215L24.2222 7.97581C23.7992 7.62585 24.017 6.93891 24.5643 6.89653L30.8657 6.40863C31.0918 6.39112 31.2897 6.24968 31.3794 6.04135L33.8221 0.369102ZM58.9438 0.369102C58.7318 -0.123034 58.034 -0.123034 57.8221 0.369102L55.3794 6.04135C55.2896 6.24968 55.0918 6.39112 54.8657 6.40863L48.5643 6.89653C48.017 6.93891 47.7992 7.62585 48.2222 7.97581L52.9914 11.9215C53.1721 12.071 53.2512 12.3107 53.195 12.5384L51.7325 18.4599C51.6028 18.9851 52.1696 19.4071 52.6356 19.1323L58.0727 15.9248C58.2641 15.8119 58.5018 15.8119 58.6932 15.9248L64.1303 19.1323C64.5962 19.4071 65.1631 18.9851 65.0333 18.4599L63.5708 12.5384C63.5146 12.3107 63.5937 12.071 63.7744 11.9215L68.5436 7.97581C68.9666 7.62585 68.7489 6.93891 68.2015 6.89653L61.9002 6.40863C61.674 6.39112 61.4762 6.24968 61.3865 6.04135L58.9438 0.369102ZM81.8221 0.369102C82.034 -0.123034 82.7318 -0.123034 82.9438 0.369102L85.3865 6.04135C85.4762 6.24968 85.674 6.39112 85.9002 6.40863L92.2015 6.89653C92.7489 6.93891 92.9666 7.62585 92.5436 7.97581L87.7744 11.9215C87.5937 12.071 87.5146 12.3107 87.5708 12.5384L89.0333 18.4599C89.1631 18.9851 88.5962 19.4071 88.1303 19.1323L82.6932 15.9248C82.5018 15.8119 82.2641 15.8119 82.0727 15.9248L76.6356 19.1323C76.1696 19.4071 75.6028 18.9851 75.7325 18.4599L77.195 12.5384C77.2512 12.3107 77.1721 12.071 76.9915 11.9215L72.2223 7.97581C71.7992 7.62585 72.017 6.93891 72.5644 6.89653L78.8657 6.40863C79.0918 6.39112 79.2897 6.24968 79.3794 6.04135L81.8221 0.369102ZM106.944 0.369102C106.732 -0.123034 106.034 -0.123034 105.822 0.369102L103.379 6.04135C103.29 6.24968 103.092 6.39112 102.866 6.40863L96.5644 6.89653C96.017 6.93891 95.7992 7.62585 96.2223 7.97581L100.991 11.9215C101.172 12.071 101.251 12.3107 101.195 12.5384L99.7325 18.4599C99.6028 18.9851 100.17 19.4071 100.636 19.1323L106.073 15.9248C106.264 15.8119 106.502 15.8119 106.693 15.9248L112.13 19.1323C112.596 19.4071 113.163 18.9851 113.033 18.4599L111.571 12.5384C111.515 12.3107 111.594 12.071 111.774 11.9215L116.544 7.97581C116.967 7.62585 116.749 6.93891 116.202 6.89653L109.9 6.40863C109.674 6.39112 109.476 6.24968 109.386 6.04135L106.944 0.369102Z" fill="#F5F5F5"/>
</svg>
