<svg width="57.000000" height="57.000000" viewBox="0 0 57 57" fill="none" xmlns="http://www.w3.org/2000/svg" xmlns:xlink="http://www.w3.org/1999/xlink">
	<desc>
			Created with Pixso.
	</desc>
	<defs/>
	<circle id="Ellipse 27" cx="28.500000" cy="28.500000" r="28.500000" fill="#3F1792" fill-opacity="1.000000"/>
	<path id="Union" d="M27.9194 18C21.8887 18 17 22.8888 17 28.9196C17 34.9502 21.8887 39.8391 27.9194 39.8391C30.2236 39.8391 32.3608 39.1255 34.1226 37.9073L36.9697 40.7545C37.2666 41.0515 37.7334 41.0515 38.0303 40.7545C38.3271 40.4575 38.3271 39.9908 38.0303 39.6938L35.3018 36.9655C37.4761 34.9695 38.8389 32.1036 38.8389 28.9196C38.8389 22.8888 33.9502 18 27.9194 18ZM27.9194 19.5C22.7173 19.5 18.5 23.7173 18.5 28.9196C18.5 34.1218 22.7173 38.3391 27.9194 38.3391C33.1216 38.3391 37.3389 34.1218 37.3389 28.9196C37.3389 23.7173 33.1216 19.5 27.9194 19.5Z" clip-rule="evenodd" fill="#F5F5F5" fill-opacity="1.000000" fill-rule="evenodd"/>
</svg>
