<svg width="20.572266" height="24.750000" viewBox="0 0 20.5723 24.75" fill="none" xmlns="http://www.w3.org/2000/svg" xmlns:xlink="http://www.w3.org/1999/xlink">
	<desc>
			Created with Pixso.
	</desc>
	<defs/>
	<path id="Корзина" d="M5.03613 7.26514L5.03613 9.84094C5.03613 10.2609 5.36621 10.5909 5.78613 10.5909C6.20605 10.5909 6.53613 10.2609 6.53613 9.84094L6.53613 7.26514L14.0361 7.26514L14.0361 9.84094C14.0361 10.2609 14.3662 10.5909 14.7861 10.5909C15.2061 10.5909 15.5361 10.2609 15.5361 9.84094L15.5361 7.26514L19.0566 7.26514L16.9385 23.2349L3.63379 23.2349L1.51562 7.26514L5.03613 7.26514ZM5.03613 5.75L1.51562 5.75C0.599609 5.75 -0.107422 6.5564 0.0136719 7.46436L2.13184 23.4341C2.23145 24.1873 2.87402 24.75 3.63379 24.75L16.9385 24.75C17.6982 24.75 18.3408 24.1873 18.4404 23.4341L20.5586 7.46436C20.6787 6.5564 19.9727 5.75 19.0566 5.75L15.5361 5.75L15.5361 5.25Q15.5361 4.66711 15.4131 4.11145Q15.3105 3.64941 15.123 3.20618Q14.9346 2.76001 14.6719 2.3623Q14.3809 1.92004 13.998 1.53772Q13.6162 1.1554 13.1738 0.86377Q12.7764 0.601562 12.3301 0.412842Q11.8867 0.225464 11.4248 0.123047Q10.8691 0 10.2861 0Q9.70312 0 9.14746 0.123047Q8.68555 0.225464 8.24219 0.412842Q7.7959 0.601562 7.39844 0.863892Q6.95605 1.1554 6.57324 1.53772Q6.19141 1.92004 5.89941 2.36218Q5.6377 2.76001 5.44922 3.20618Q5.26172 3.64941 5.15918 4.11145Q5.03613 4.66711 5.03613 5.25L5.03613 5.75ZM6.53613 5.75L14.0361 5.75L14.0361 5.25Q14.0361 4.81909 13.9424 4.40967Q13.8701 4.09375 13.7412 3.79053Q13.6104 3.479 13.4277 3.20044Q13.2168 2.87732 12.9375 2.59839Q12.6592 2.31946 12.3359 2.10815Q12.0566 1.92615 11.7451 1.79443Q11.4424 1.66614 11.126 1.59375Q10.7168 1.5 10.2861 1.5Q9.85547 1.5 9.44531 1.59375Q9.12988 1.66614 8.82617 1.79443Q8.51465 1.92615 8.23633 2.10828Q7.91309 2.31946 7.63477 2.59839Q7.35547 2.8772 7.14453 3.20044Q6.96191 3.479 6.83008 3.79053Q6.70215 4.09375 6.62988 4.40979Q6.53613 4.81909 6.53613 5.25L6.53613 5.75Z" clip-rule="evenodd" fill="#F5F5F5" fill-opacity="1.000000" fill-rule="evenodd"/>
</svg>
